# Alias OBJ Model File
# Exported from SketchUp, (c) 2000-2012 Trimble Navigation Limited
# File units = meters

mtllib explode.mtl

g Mesh1 Component_1_1 Group3 Group2 Group1 Untitled1 Model

usemtl Fire_Ball
v -0.430087 -0.0530933 -1.2022
vt 8.99421e-17 3.38325e-53
vn -0.533865 -0.777419 0.332579
v 1.14314 -0.670728 -0.12056
vt 1 2.96478e-29
v 0.507667 0.42994 1.43223
vt 1 1
v -1.06556 1.04757 0.350592
vt 8.99421e-17 1
f 1/1/1 2/2/1 3/3/1 4/4/1 

g Mesh2 Component_1_2 Group3 Group2 Group1 Untitled1 Model

v -0.213002 -1.19126 -0.306583
vn 0.784025 -0.307802 0.539039
v 0.858252 0.368707 -0.973935
v 0.222781 1.46938 0.578853
v -0.848473 -0.0905928 1.2462
f 5/1/2 6/2/2 7/3/2 8/4/2 

g Mesh3 Component_1_3 Group3 Group2 Group1 Untitled1 Model

v 0.559841 -1.20463 0.0191762
vn 0.931889 0.332069 0.145989
v 0.204894 0.335168 -1.21754
v -0.430577 1.43584 0.335243
v -0.07563 -0.103962 1.57196
f 9/1/3 10/2/3 11/3/3 12/4/3 

g Mesh4 Component_1_4 Group3 Group2 Group1 Untitled1 Model

v 1.29607 -0.0289776 -0.512867
vn -0.17689 0.767367 -0.616327
v -0.573858 -0.695308 -0.80581
v -1.20933 0.405361 0.746978
v 0.6606 1.07169 1.03992
f 13/1/4 14/2/4 15/3/4 16/4/4 

g Mesh5 Component_1_5 Group4 Group2 Group1 Untitled1 Model

v -0.334854 1.16272 -0.646455
vn 0.31669 -0.548524 -0.77384
v 1.23837 0.545089 0.435181
v 0.167117 -1.01488 1.10253
v -1.40611 -0.397244 0.0208977
f 17/1/5 18/2/5 19/3/5 20/4/5 

g Mesh6 Component_1_6 Group4 Group2 Group1 Untitled1 Model

v 0.789603 0.268741 -0.93117
v 0.154132 1.36941 0.621618
v -0.917121 -0.190559 1.28897
v -0.28165 -1.29123 -0.263817
f 21/1/2 22/2/2 23/3/2 24/4/2 

g Mesh7 Component_1_7 Group4 Group2 Group1 Untitled1 Model

v 1.3125 0.188108 -0.280279
vn 0.330455 0.170216 0.928346
v -0.249281 1.40313 0.0528766
v -1.32054 -0.156836 0.720229
v 0.241249 -1.37186 0.387074
f 25/1/6 26/2/6 27/3/6 28/4/6 

g Mesh8 Component_1_8 Group4 Group2 Group1 Untitled1 Model

v 0.786535 1.02409 0.829568
vn -0.778323 0.605514 0.16603
v 0.123443 0.682533 -1.03325
v -0.947811 -0.877435 -0.365898
v -0.284719 -0.535879 1.49692
f 29/1/7 30/2/7 31/3/7 32/4/7 

g Mesh9 Component_1_9 Group5 Group2 Group1 Untitled1 Model

v -1.07747 0.880955 0.205117
vn -0.472586 -0.695263 -0.541545
v 0.572267 0.627076 -0.908602
v 1.20911 -0.792657 0.358376
v -0.440625 -0.538778 1.4721
f 33/1/8 34/2/8 35/3/8 36/4/8 

g Mesh10 Component_1_10 Group5 Group2 Group1 Untitled1 Model

v -0.756755 0.0123087 -0.929463
vn 0.822153 -0.126522 -0.555028
v 0.191537 1.40742 0.157201
v 0.828379 -0.0123087 1.42418
v -0.119913 -1.40742 0.337516
f 37/1/9 38/2/9 39/3/9 40/4/9 

g Mesh11 Component_1_11 Group5 Group2 Group1 Untitled1 Model

v 0.0280364 0.117218 -1.20638
vn 0.915519 0.402161 -0.00953393
v -0.467957 1.28323 0.349529
v 0.168884 -0.1365 1.61651
v 0.664878 -1.30251 0.0606017
f 41/1/10 42/2/10 43/3/10 44/4/10 

g Mesh12 Component_1_12 Group5 Group2 Group1 Untitled1 Model

v 0.670607 1.15801 -0.363092
vn -0.247181 0.58109 0.775394
v -1.16647 0.351029 -0.343961
v -0.529633 -1.0687 0.923018
v 1.30745 -0.261728 0.903887
f 45/1/11 46/2/11 47/3/11 48/4/11 

g Mesh13 Component_1_13 Group6 Group2 Group1 Untitled1 Model

v -0.494297 -1.0539 1.15343
vn 0.0745521 -0.645152 -0.760408
v -1.33545 0.29375 -0.0724235
v 0.480177 1.02476 -0.514628
v 1.32133 -0.32289 0.711229
f 49/1/12 50/2/12 51/3/12 52/4/12 

g Mesh14 Component_1_14 Group6 Group2 Group1 Untitled1 Model

v -0.835343 -1.06832 -0.270699
vn -0.419196 0.671611 -0.610912
v -0.98494 0.226237 1.25514
v 0.830692 0.957251 0.812933
v 0.980288 -0.337311 -0.712903
f 53/1/13 54/2/13 55/3/13 56/4/13 

g Mesh15 Component_1_15 Group6 Group2 Group1 Untitled1 Model

v -1.18659 -0.351096 -0.527203
vn -0.349132 0.931092 0.10571
v -0.69758 -0.388638 1.41854
v 1.11805 0.342376 0.976333
v 0.629043 0.379918 -0.969407
f 57/1/14 58/2/14 59/3/14 60/4/14 

g Mesh16 Component_1_16 Group6 Group2 Group1 Untitled1 Model

v -1.26728 0.558311 0.644861
vn 0.2437 -0.0187093 0.96967
v -0.566706 -1.31002 0.432744
v 1.24893 -0.579004 -0.00946017
v 0.548356 1.28932 0.202657
f 61/1/15 62/2/15 63/3/15 64/4/15 

g Mesh17 Component_1_17 Group7 Group2 Group1 Untitled1 Model

v 1.0114 0.225184 1.15862
vn 0.627021 -0.0481612 -0.777512
v 0.0800743 -1.42964 0.510059
v -1.17534 -0.298868 -0.572405
v -0.244015 1.35596 0.076152
f 65/1/16 66/2/16 67/3/16 68/4/16 

g Mesh18 Component_1_18 Group7 Group2 Group1 Untitled1 Model

v 1.21464 -0.653608 0.0048879
vn -0.46413 -0.824692 -0.323212
v -0.0435377 -0.556968 1.56504
v -1.29895 0.573807 0.482579
v -0.040771 0.477167 -1.07758
f 69/1/17 70/2/17 71/3/17 72/4/17 

g Mesh19 Component_1_19 Group7 Group2 Group1 Untitled1 Model

v 0.665746 -1.28737 -0.0205608
vn -0.77156 -0.54909 0.321239
v 0.434625 -0.0488922 1.54124
v -0.820789 1.08188 0.458771
v -0.589667 -0.156592 -1.10303
f 73/1/18 74/2/18 75/3/18 76/4/18 

g Mesh20 Component_1_20 Group7 Group2 Group1 Untitled1 Model

v -0.231576 -1.15698 1.15633
vn -0.115181 0.6172 0.77833
v 1.31664 -0.0551786 0.511734
v 0.061224 1.0756 -0.570731
v -1.48699 -0.0262082 0.0738674
f 77/1/19 78/2/19 79/3/19 80/4/19 

g Mesh21 Component_1_21 Group8 Group2 Group1 Untitled1 Model

v 1.0614 0.297999 1.12747
v 0.130077 -1.35683 0.478909
v -1.12534 -0.226053 -0.603555
v -0.194012 1.42877 0.0450018
f 81/1/16 82/2/16 83/3/16 84/4/16 

g Mesh22 Component_1_22 Group8 Group2 Group1 Untitled1 Model

v 1.26465 -0.580793 -0.0262622
v 0.00646539 -0.484153 1.53389
v -1.24895 0.646622 0.451429
v 0.00923218 0.549982 -1.10873
f 85/1/17 86/2/17 87/3/17 88/4/17 

g Mesh23 Component_1_23 Group8 Group2 Group1 Untitled1 Model

v 0.71575 -1.21455 -0.051711
v 0.484628 0.0239227 1.51009
v -0.770786 1.1547 0.427621
v -0.539664 -0.0837769 -1.13418
f 89/1/18 90/2/18 91/3/18 92/4/18 

g Mesh24 Component_1_24 Group8 Group2 Group1 Untitled1 Model

v -0.181573 -1.08417 1.12518
v 1.36664 0.0176364 0.480584
v 0.111227 1.14841 -0.601881
v -1.43699 0.0466067 0.0427172
f 93/1/19 94/2/19 95/3/19 96/4/19 

g Mesh25 Component_1_25 Group10 Group9 Group1 Untitled1 Model

v -1.09449 -1.0033 -0.176504
vn 0 1.64816e-13 1
v 0.912112 -1.0033 -0.176504
v 0.912112 1.0033 -0.176504
v -1.09449 1.0033 -0.176504
f 97/1/20 98/2/20 99/3/20 100/4/20 

g Mesh26 Component_1_26 Group10 Group9 Group1 Untitled1 Model

v -0.0911879 -1.0033 0.890296
vn 1 1.64816e-13 1.49017e-08
v -0.0911879 -1.0033 -1.1163
v -0.0911879 1.0033 -1.1163
v -0.0911879 1.0033 0.890296
f 101/1/21 102/2/21 103/3/21 104/4/21 

g Mesh27 Component_1_27 Group10 Group9 Group1 Untitled1 Model

v 0.694452 -1.0033 0.596436
vn 0.707107 1.64816e-13 -0.707107
v -0.724428 -1.0033 -0.822444
v -0.724428 1.0033 -0.822444
v 0.694452 1.0033 0.596436
f 105/1/22 106/2/22 107/3/22 108/4/22 

g Mesh28 Component_1_28 Group10 Group9 Group1 Untitled1 Model

v 0.623015 -1.0033 -0.887532
vn -0.707107 1.64816e-13 -0.707107
v -0.795866 -1.0033 0.531349
v -0.795866 1.0033 0.531349
v 0.623015 1.0033 -0.887532
f 109/1/23 110/2/23 111/3/23 112/4/23 

g Mesh29 Component_1_29 Group11 Group9 Group1 Untitled1 Model

v -1.09449 0.0635 -0.987717
vn 0 -1 1.28501e-12
v 0.912112 0.0635 -0.987717
v 0.912112 0.0635 1.01888
v -1.09449 0.0635 1.01888
f 113/1/24 114/2/24 115/3/24 116/4/24 

g Mesh30 Component_1_30 Group11 Group9 Group1 Untitled1 Model

v -0.0911879 -1.0033 -0.987717
vn 1 -1.49017e-08 1.64816e-13
v -0.0911879 1.0033 -0.987717
v -0.0911879 1.0033 1.01888
v -0.0911879 -1.0033 1.01888
f 117/1/25 118/2/25 119/3/25 120/4/25 

g Mesh31 Component_1_31 Group11 Group9 Group1 Untitled1 Model

v 0.694452 -0.70944 -0.987717
vn 0.707107 0.707107 -6.27278e-13
v -0.724428 0.70944 -0.987717
v -0.724428 0.70944 1.01888
v 0.694452 -0.70944 1.01888
f 121/1/26 122/2/26 123/3/26 124/4/26 

g Mesh32 Component_1_32 Group11 Group9 Group1 Untitled1 Model

v 0.623015 0.774528 -0.987717
vn -0.707107 0.707107 -6.27278e-13
v -0.795866 -0.644353 -0.987717
v -0.795866 -0.644353 1.01888
v 0.623015 0.774528 1.01888
f 125/1/27 126/2/27 127/3/27 128/4/27 

g Mesh33 Component_1_33 Group12 Group9 Group1 Untitled1 Model

v -1.13096 0.803101 -0.088996
vn -0.44843 -0.650774 0.612702
v -0.359717 -0.720453 -1.14276
v 1.25953 -0.720453 0.0423494
v 0.488291 0.803101 1.09611
f 129/1/28 130/2/28 131/3/28 132/4/28 

g Mesh34 Component_1_34 Group12 Group9 Group1 Untitled1 Model

v -1.22372 -0.652922 0.0377523
vn 0.384351 -0.759271 -0.525149
v -0.323901 0.652922 -1.1917
v 1.29535 0.652922 -0.0065858
v 0.395526 -0.652922 1.22286
f 133/1/29 134/2/29 135/3/29 136/4/29 

g Mesh35 Component_1_35 Group12 Group9 Group1 Untitled1 Model

v -0.789984 -1.0582 -0.554874
vn 0.588865 -0.076719 -0.804582
v -0.699063 0.942487 -0.679101
v 0.920183 0.942487 0.506008
v 0.829263 -1.0582 0.630235
f 137/1/30 138/2/30 139/3/30 140/4/30 

g Mesh36 Component_1_36 Group12 Group9 Group1 Untitled1 Model

v -0.151985 -0.038231 -1.42659
vn 0.0453107 0.997053 -0.0619092
v -1.3336 0.115713 0.187885
v 0.285645 0.115713 1.37299
v 1.46726 -0.038231 -0.241479
f 141/1/31 142/2/31 143/3/31 144/4/31 

g Mesh37 Component_1_37 Group13 Group9 Group1 Untitled1 Model

v 0.432997 0.290946 1.41926
vn -0.15286 -0.965926 0.208857
v -1.30209 0.347936 0.412935
v -0.341959 -0.168274 -1.27174
v 1.39312 -0.225264 -0.265418
f 145/1/32 146/2/32 147/3/32 148/4/32 

g Mesh38 Component_1_38 Group13 Group9 Group1 Untitled1 Model

v -0.597616 -0.711008 1.1389
vn -0.864688 0.0284013 -0.501505
v -0.290887 1.22722 0.719812
v 0.66924 0.711008 -0.964862
v 0.362512 -1.22722 -0.54577
f 149/1/33 150/2/33 151/3/33 152/4/33 

g Mesh39 Component_1_39 Group13 Group9 Group1 Untitled1 Model

v -1.23203 -0.404848 0.683526
vn -0.503339 0.703095 -0.502302
v 0.211749 0.925387 1.09876
v 1.17188 0.409177 -0.585914
v -0.271903 -0.921058 -1.00115
f 153/1/34 154/2/34 155/3/34 156/4/34 

g Mesh40 Component_1_40 Group13 Group9 Group1 Untitled1 Model

v -0.94342 1.02653 0.409416
vn 0.719515 0.66293 0.206934
v 0.0665791 -0.384306 1.41733
v 1.02671 -0.900516 -0.267339
v 0.0167075 0.510316 -1.27526
f 157/1/35 158/2/35 159/3/35 160/4/35 

g Mesh41 Component_1_41 Group14 Group9 Group1 Untitled1 Model

v 1.22259 0.519728 -0.377245
vn 0.0873148 -0.826659 -0.555887
v 0.652168 -0.594922 1.19075
v -1.26365 -0.414742 0.621885
v -0.693232 0.699908 -0.946114
f 161/1/36 162/2/36 163/3/36 164/4/36 

g Mesh42 Component_1_42 Group14 Group9 Group1 Untitled1 Model

v 1.03053 -0.919477 -0.186266
vn -0.284272 -0.555492 0.781421
v 0.855319 0.739297 0.929177
v -1.0605 0.919477 0.360308
v -0.885295 -0.739297 -0.755135
f 165/1/37 166/2/37 167/3/37 168/4/37 

g Mesh43 Component_1_43 Group14 Group9 Group1 Untitled1 Model

v 0.781531 -1.11297 0.591002
vn -0.262751 0.191744 0.945619
v 1.06099 0.848135 0.270997
v -0.85483 1.02832 -0.297872
v -1.13429 -0.932792 0.0221332
f 169/1/38 170/2/38 171/3/38 172/4/38 

g Mesh44 Component_1_44 Group14 Group9 Group1 Untitled1 Model

v 0.672267 0.153447 1.3601
vn 0.13927 0.977329 -0.159476
v 1.1995 -0.231307 -0.537382
v -0.716316 -0.0511275 -1.10625
v -1.24355 0.333627 0.791229
f 173/1/39 174/2/39 175/3/39 176/4/39 

g Mesh45 Component_1_45 Group15 Group9 Group1 Untitled1 Model

v 1.22259 0.519728 -0.470908
v 0.652168 -0.594922 1.09709
v -1.26365 -0.414742 0.528222
v -0.693232 0.699908 -1.03978
f 177/1/36 178/2/36 179/3/36 180/4/36 

g Mesh46 Component_1_46 Group15 Group9 Group1 Untitled1 Model

v 1.03053 -0.919477 -0.279929
v 0.855319 0.739297 0.835514
v -1.0605 0.919477 0.266645
v -0.885295 -0.739297 -0.848798
f 181/1/37 182/2/37 183/3/37 184/4/37 

g Mesh47 Component_1_47 Group15 Group9 Group1 Untitled1 Model

v 0.781531 -1.11297 0.497339
v 1.06099 0.848135 0.177334
v -0.85483 1.02832 -0.391534
v -1.13429 -0.932792 -0.0715293
f 185/1/38 186/2/38 187/3/38 188/4/38 

g Mesh48 Component_1_48 Group15 Group9 Group1 Untitled1 Model

v 0.672267 0.153447 1.26644
v 1.1995 -0.231307 -0.631044
v -0.716316 -0.0511275 -1.19991
v -1.24355 0.333627 0.697567
f 189/1/39 190/2/39 191/3/39 192/4/39 

